<svg width="960" height="720" viewBox="0 0 960 720" fill="none" xmlns="http://www.w3.org/2000/svg">
<rect width="960" height="720" rx="44" fill="#FFF4EA"/>
<circle cx="708" cy="146" r="92" fill="#FFD4B7"/>
<circle cx="158" cy="588" r="108" fill="#FFE1C9"/>
<rect x="74" y="78" width="812" height="564" rx="40" fill="url(#a)"/>
<circle cx="481" cy="359" r="220" fill="#F8C873"/>
<circle cx="481" cy="359" r="198" fill="#F6A84B"/>
<path d="M481 162C367 162 274 248 261 359H701C688 248 595 162 481 162Z" fill="#FFD96E"/>
<path d="M261 359C274 470 367 556 481 556C595 556 688 470 701 359H261Z" fill="#F4B14D"/>
<circle cx="386" cy="302" r="28" fill="#C53E18"/>
<circle cx="559" cy="300" r="28" fill="#C53E18"/>
<circle cx="485" cy="413" r="28" fill="#C53E18"/>
<circle cx="360" cy="428" r="28" fill="#C53E18"/>
<circle cx="602" cy="420" r="28" fill="#C53E18"/>
<path d="M292 243C343 189 410 162 481 162" stroke="#FFF6B2" stroke-width="18" stroke-linecap="round"/>
<path d="M701 359C688 470 595 556 481 556" stroke="#E6862D" stroke-width="18" stroke-linecap="round"/>
<path d="M426 311L457 334L420 347L426 311Z" fill="#39854B"/>
<path d="M548 238L580 257L546 276L548 238Z" fill="#39854B"/>
<path d="M577 363L607 386L570 397L577 363Z" fill="#39854B"/>
<path d="M338 352L367 374L333 387L338 352Z" fill="#39854B"/>
<rect x="124" y="108" width="188" height="54" rx="27" fill="#fff" fill-opacity=".88"/>
<text x="154" y="143" fill="#2C160F" font-family="Arial, sans-serif" font-size="28" font-weight="700">Top Pizza</text>
<defs>
<linearGradient id="a" x1="123" y1="112" x2="833" y2="628" gradientUnits="userSpaceOnUse">
<stop stop-color="#FFFAF4"/>
<stop offset="1" stop-color="#FFEAD8"/>
</linearGradient>
</defs>
</svg>
